<?xml version="1.0" encoding="UTF-8"?>
<svg xmlns="http://www.w3.org/2000/svg" version="1.1" viewBox="0 0 441 441">
  <defs>
    <style>
      .cls-1 {
        fill: #f4f4f4;
      }

      .cls-2 {
        fill: #374689;
      }
    </style>
  </defs>
  <!-- Generator: Adobe Illustrator 28.6.0, SVG Export Plug-In . SVG Version: 1.2.0 Build 709)  -->
  <g>
    <g id="Layer_1">
      <g>
        <rect class="cls-1" width="441" height="441" rx="94.1" ry="94.1"/>
        <path class="cls-2" d="M355.5,337.1c0,19.6-15.3,34.9-35.5,34.9H120.4c-19.6,0-34.9-15.3-34.9-34.9s3.1-17.8,14.1-30l139.6-168.4h-110.2c-20.2,0-35.5-14.7-35.5-34.9s15.3-34.9,35.5-34.9h185.5c20.2,0,35.5,14.7,35.5,34.3s-4.3,19.6-11.6,28.2l-140.8,170.8h122.4c20.2,0,35.5,14.7,35.5,34.9Z"/>
      </g>
      <g>
        <rect class="cls-1" x="25.4" y="-534.9" width="441" height="441" rx="94.1" ry="94.1"/>
        <path class="cls-2" d="M391.2-179.2c0,17.6-13.7,31.7-32.2,31.7s-24.9-8.3-31.3-23.4l-13.7-33.2h-136.2l-13.7,33.2c-5.9,15.1-16.6,23.4-30.8,23.4s-32.7-14.2-32.7-31.7,1.5-10.7,3.9-17.6l110.4-262.2c5.9-14.6,16.6-22.5,31.3-22.5s25.4,7.8,31.3,22.5l109.9,262.2c2.9,6.8,3.9,12.7,3.9,17.6ZM199.3-258.3h92.8l-45.9-126-46.9,126Z"/>
      </g>
    </g>
  </g>
</svg>